<svg xmlns="http://www.w3.org/2000/svg" xmlns:xlink="http://www.w3.org/1999/xlink" viewBox="0 0 307.53 522.37"><defs><style>.cls-1{opacity:0.5;}.cls-2{fill:url(#linear-gradient);}</style><linearGradient id="linear-gradient" x1="385.73" y1="-18.6" x2="-36.55" y2="491.88" gradientUnits="userSpaceOnUse"><stop offset="0" stop-color="#fff"/><stop offset="0.09" stop-color="#f4f4f4" stop-opacity="0.96"/><stop offset="0.24" stop-color="#d5d5d5" stop-opacity="0.84"/><stop offset="0.44" stop-color="#a4a4a4" stop-opacity="0.64"/><stop offset="0.69" stop-color="#606060" stop-opacity="0.38"/><stop offset="0.97" stop-color="#0a0a0a" stop-opacity="0.04"/><stop offset="1" stop-opacity="0"/></linearGradient></defs><title>f</title><g id="Layer_2" data-name="Layer 2"><g id="Layer_1-2" data-name="Layer 1"><g class="cls-1"><path class="cls-2" d="M117.59,313.05V241.49l3.28-2.41h58.25V221.66H117.59v-37c0-52.66-6-153.28,49.51-167.78,8.38-2.14,20.39-2.14,28.76,2.15-3.35,18.47-12.63,42,11.29,52.52,38,16.49,59.7-31.63,20.39-60.57C210.79-1.59,178-1.86,157.64,2.7A125.1,125.1,0,0,0,121.23,18C56.86,58.58,58.52,157,58.52,222.93H.09L0,223l.36,13.94c4.39,5,48.15,2.41,57.52,2.41v189L59,505l-58.62.27L0,522.37H179.12V511.92l-.37-6.7c-13.1,0-52.78,3.49-61.16-1.61V313.05Zm163.7-109.66a26.23,26.23,0,1,1-26.23,26.23A26.23,26.23,0,0,1,281.29,203.39Z"/></g></g></g></svg>