<svg xmlns="http://www.w3.org/2000/svg" xmlns:xlink="http://www.w3.org/1999/xlink" viewBox="0 0 709.62 116.25"><defs><style>.cls-1{fill:url(#linear-gradient);}</style><linearGradient id="linear-gradient" x1="354.81" y1="-57.66" x2="354.81" y2="144.26" gradientUnits="userSpaceOnUse"><stop offset="0.16" stop-color="#fff"/><stop offset="0.23" stop-color="#fafafa" stop-opacity="0.98"/><stop offset="0.33" stop-color="#eaeaea" stop-opacity="0.92"/><stop offset="0.43" stop-color="#d1d1d1" stop-opacity="0.82"/><stop offset="0.54" stop-color="#aeaeae" stop-opacity="0.68"/><stop offset="0.65" stop-color="gray" stop-opacity="0.5"/><stop offset="0.77" stop-color="#494949" stop-opacity="0.29"/><stop offset="0.89" stop-color="#080808" stop-opacity="0.03"/><stop offset="0.91" stop-opacity="0"/></linearGradient></defs><title>fashiontv</title><g id="Layer_2" data-name="Layer 2"><g id="Layer_1-2" data-name="Layer 1"><path class="cls-1" d="M69.29,110.09,0,41.6,35.64,6.36H102.9L138.57,41.6ZM9.66,41.6l59.63,58.94L128.91,41.6,100.07,13.12H38.48Zm62.86,4.55V35.58c0-9.36,2.94-14.79,7.48-14.79.66,0,2.27.09,2.27.56,0,1.22-.75,1.31-.75,2.34,0,2.53,1.32,4.31,3.88,4.31,1.61,0,3.5-1.22,3.5-3.09,0-4.4-4.26-6.08-8-6.08-9.09,0-15.81,6.73-15.81,22.74v4.58H57.85v2.16h7.29V81.06H57.85v2.16H80.19V81.06H72.52V48.31h7.67V46.15Zm23.8.94a3.43,3.43,0,1,0-3.43,3.39,3.41,3.41,0,0,0,3.43-3.39m91.84,2.29V30.9q0-12.25,3.55-19t9.51-6.79c.55,0,1.35.06,2.4.16s1.57.39,1.57.82a2.87,2.87,0,0,1-.66,2.21,2.37,2.37,0,0,0-.66,1.88,8.26,8.26,0,0,0,1.73,5.39,6.14,6.14,0,0,0,5.05,2.13,6.84,6.84,0,0,0,4.13-1.47,4.64,4.64,0,0,0,2-3.93,9,9,0,0,0-1.24-4.9,10.71,10.71,0,0,0-3.23-3.27,13.57,13.57,0,0,0-4.46-1.88,22.15,22.15,0,0,0-5-.57,26.24,26.24,0,0,0-11,2.29A22.93,22.93,0,0,0,183.11,11a35.37,35.37,0,0,0-5.79,12.34,68.49,68.49,0,0,0-2.06,18v8H162.52v3.76h12.74v57.23H162.52v3.76h39v-3.76H188.16V53.14h13.39V49.38Zm87.11,53.46a14,14,0,0,1-4.3,9.57,13.51,13.51,0,0,1-9.76,3.84,9.72,9.72,0,0,1-7.28-2.7,13.5,13.5,0,0,1-3.47-7.27,25.36,25.36,0,0,1-10.17,7.6,33,33,0,0,1-19.6,1.55,17.17,17.17,0,0,1-6.12-2.69,13.61,13.61,0,0,1-4.22-4.91,16.34,16.34,0,0,1-1.57-7.6q.33-11.45,11.41-17.58t30.1-6.13V61a9.56,9.56,0,0,0-1.07-4.82,9.1,9.1,0,0,0-2.73-3,11,11,0,0,0-3.8-1.64,19.77,19.77,0,0,0-4.3-.49c-.89,0-2.18.09-3.89.25a32.84,32.84,0,0,0-5.13.9,16.63,16.63,0,0,0-4.46,1.8A3.37,3.37,0,0,0,223,56.9c0,.33.25.65.75,1s1.07.74,1.74,1.23a6.41,6.41,0,0,1,1.73,2,6.51,6.51,0,0,1,.75,3.27,6.88,6.88,0,0,1-1.82,5,6.62,6.62,0,0,1-5,1.88,6.27,6.27,0,0,1-5.12-2.21,8.53,8.53,0,0,1-1.82-5.64,11.23,11.23,0,0,1,1.4-4.9,15.55,15.55,0,0,1,4.47-5.16,26.77,26.77,0,0,1,8.11-4,40.91,40.91,0,0,1,12.48-1.64q8.43,0,13,1.56a15.25,15.25,0,0,1,6.69,4,9.57,9.57,0,0,1,2.48,5.24,44.36,44.36,0,0,1,.33,5.23v38.91a27.91,27.91,0,0,0,.42,5.64c.27,1.26,1.29,1.88,3.06,1.88a4.13,4.13,0,0,0,3.8-2.61,31.67,31.67,0,0,0,2-4.75ZM250.29,80a81.36,81.36,0,0,0-9,.58,36.14,36.14,0,0,0-9.51,2.37,20.22,20.22,0,0,0-7.52,5.15A12.65,12.65,0,0,0,221.18,97q0,6,3.48,9.48a12.58,12.58,0,0,0,9.26,3.43,19.86,19.86,0,0,0,6.86-1.06,18.81,18.81,0,0,0,5.87-3.68,20.17,20.17,0,0,0,2.32-2.86q1.32-1.87,1.32-7.11Zm72.2-30.57-3,4.41q-7.62-6-15.38-6A24.21,24.21,0,0,0,293.05,50a20.49,20.49,0,0,0-6.78,5.31,18.85,18.85,0,0,0-3.48,6.55,22.18,22.18,0,0,0-1,6,18.29,18.29,0,0,0,1.65,8.5,13.44,13.44,0,0,0,4.47,5,21.47,21.47,0,0,0,6.53,2.87q3.72,1,7.86,2a109.57,109.57,0,0,1,16.62,5.31q6.19,2.7,6.2,7.44a11.16,11.16,0,0,1-1.49,5.8,16.08,16.08,0,0,1-3.8,4.42A17.31,17.31,0,0,1,309.09,113q-9.27,0-15.22-5.8a31,31,0,0,1-8.27-14.64h-3.8v21.59h3.64l3.64-5.89a23.76,23.76,0,0,0,8.68,6,27.78,27.78,0,0,0,19.6.49,23.06,23.06,0,0,0,7.52-4.42,20.76,20.76,0,0,0,5.13-7,22.36,22.36,0,0,0,1.9-9.4q0-7.84-3.8-12.26t-13.4-6.38q-9.42-2-14.8-3.43a42.65,42.65,0,0,1-8-2.86c-1.77-.93-2.84-1.85-3.23-2.78a8.36,8.36,0,0,1-.58-3.19,15.24,15.24,0,0,1,.5-2.7,10.6,10.6,0,0,1,2.15-4.09,15,15,0,0,1,4.71-3.67A16.4,16.4,0,0,1,303.63,51q7.44.33,11.83,4.91a25.87,25.87,0,0,1,6.2,11.77h3.64V49.38Zm23.7,61h-9.1v3.76H368v-3.76h-8.93V80a34,34,0,0,1,5.7-18.39A25.7,25.7,0,0,1,371.08,55a13.2,13.2,0,0,1,7.85-2.53,17.53,17.53,0,0,1,4.39.49,6.88,6.88,0,0,1,3.31,2,9.08,9.08,0,0,1,2.06,4.17,30.9,30.9,0,0,1,.66,7.11v44.15h-8.6v3.76h30.43v-3.76h-8.93V64.09q0-5.55-2.23-8.83a15.58,15.58,0,0,0-5.37-5,18.15,18.15,0,0,0-6.54-2.13,48.85,48.85,0,0,0-5.54-.41q-9.09,0-14.39,4.75a36.14,36.14,0,0,0-8.76,12.59h-.33V0a82.2,82.2,0,0,1-9.18,1.15c-3.15.22-6.26.32-9.35.32h-3.47V5.23h9.1Zm72.19,3.76v-3.76h11.08V53.14H418.38V49.38h5.46c3.08,0,6.2-.08,9.34-.25a45.83,45.83,0,0,0,9.18-1.39v62.63h9.76v3.76Zm9.43-100.07a7.4,7.4,0,0,1,2.4-5.56,7.77,7.77,0,0,1,5.53-2.28,8.8,8.8,0,0,1,5.71,2.28,7,7,0,0,1,2.73,5.56,8.5,8.5,0,0,1-2.4,6.21,8.08,8.08,0,0,1-6,2.46A7.16,7.16,0,0,1,430,20.19a9.1,9.1,0,0,1-2.15-6.13m60.6,33.68a30.78,30.78,0,0,1,12.32,2.54,30.33,30.33,0,0,1,10.17,7.11,34.93,34.93,0,0,1,6.86,10.87,37.56,37.56,0,0,1,0,27.31,34.93,34.93,0,0,1-6.86,10.87,31.45,31.45,0,0,1-10.17,7.2,30.41,30.41,0,0,1-24.65,0,31.45,31.45,0,0,1-10.17-7.2,35.12,35.12,0,0,1-6.86-10.87,37.56,37.56,0,0,1,0-27.31,35.12,35.12,0,0,1,6.86-10.87,30.33,30.33,0,0,1,10.17-7.11,30.83,30.83,0,0,1,12.33-2.54m0,3.27q-6.3,0-9.68,3a17.72,17.72,0,0,0-5,7.44,32.71,32.71,0,0,0-1.9,10q-.26,5.47-.25,10.55,0,5.24.25,10.71a32.71,32.71,0,0,0,1.9,10,17.72,17.72,0,0,0,5,7.44q3.39,2.94,9.68,2.94t9.67-2.94a17.83,17.83,0,0,0,5.05-7.44,33.32,33.32,0,0,0,1.9-10c.16-3.65.25-7.22.25-10.71s-.09-6.9-.25-10.55a33.32,33.32,0,0,0-1.9-10A17.83,17.83,0,0,0,498.08,54q-3.39-3-9.67-3m45.44,59.36h-9.09v3.76h30.93v-3.76h-8.93V80a34,34,0,0,1,5.7-18.39A25.7,25.7,0,0,1,558.75,55a13.21,13.21,0,0,1,7.85-2.54A17.42,17.42,0,0,1,571,53a6.79,6.79,0,0,1,3.31,2,9,9,0,0,1,2.07,4.17,31,31,0,0,1,.66,7.11v44.15h-8.6v3.76h30.43v-3.76h-8.93V64.1q0-5.56-2.23-8.83a15.36,15.36,0,0,0-5.38-5,18,18,0,0,0-6.53-2.13,48.85,48.85,0,0,0-5.54-.41q-9.09,0-14.39,4.74a36.43,36.43,0,0,0-8.77,12.6h-.32V47.74c-1.55.33-3.09.6-4.63.82s-3.09.38-4.64.49a32.66,32.66,0,0,1-4.63.33h-8.1v3.76h9.09Zm65.48-57.23h9.43V102a36.19,36.19,0,0,0,.41,5.55,10.61,10.61,0,0,0,1.74,4.5,9.09,9.09,0,0,0,4,3,18.27,18.27,0,0,0,7.11,1.14,23.15,23.15,0,0,0,10.26-2.61,16,16,0,0,0,7.6-7.36l-2.64-1.8q-2,2.3-4,4.17a7.39,7.39,0,0,1-5.29,1.88,7.52,7.52,0,0,1-3.64-.74,4.55,4.55,0,0,1-1.9-1.8,5.58,5.58,0,0,1-.67-2.36c0-.88-.08-1.69-.08-2.46v-50h14.55V49.38H621.66V28.61a49,49,0,0,1-6.2.58q-3.06.07-6.37.08V49.38h-9.76Zm51.74,0,22.16,63.11h5.62l22.83-63.11h7.94V49.38h-22.5v3.76h10.09l-16.7,46.92h-.33l-16-46.92h8.76V49.38H643.13v3.76Z"/></g></g></svg>