<svg xmlns="http://www.w3.org/2000/svg" viewBox="0 0 118.94 141.88"><defs><style>.cls-1{font-size:37.28px;font-family:BodoniSevITC-Book, Bodoni Seventytwo ITC;}.cls-1,.cls-2{fill:#fff;}</style></defs><title>fhouse-logo</title><g id="Layer_2" data-name="Layer 2"><g id="Layer_1-2" data-name="Layer 1"><text class="cls-1" transform="translate(0.46 131.96)">HOUSE</text><path class="cls-2" d="M59.47,90.06,0,30.59,30.59,0H88.33l30.61,30.59ZM8.3,30.59,59.47,81.77l51.18-51.18L85.9,5.87H33Z"/><path class="cls-2" d="M68.83,34.55v1.87H62.25V64.86h6.58v1.87H49.65V64.86h6.26V36.42H49.65V34.55h6.26v-4c0-13.9,5.77-19.75,13.57-19.75,3.17,0,6.83,1.46,6.83,5.28a2.94,2.94,0,0,1-3,2.69c-2.19,0-3.33-1.55-3.33-3.74,0-.9.65-1,.65-2,0-.41-1.38-.49-2-.49-3.9,0-6.42,4.71-6.42,12.84v9.18Z"/><path class="cls-2" d="M82.67,35.36a2.94,2.94,0,1,1-2.94-2.94,2.93,2.93,0,0,1,2.94,2.94"/></g></g></svg>